<svg xmlns="http://www.w3.org/2000/svg" viewBox="0 0 1746 830" fill="none"><style>.a{fill:#3F3D56;}.b{fill:#FBBEBE;}.c{fill:#3C354C;}.d{fill:black;opacity:0.1;}.e{fill:#009688;}.f{fill:#A0616A;}.g{fill:#57B894;}</style><path d="M1744 826.9C1743.9 826.9 1743.8 827 1743.7 827H0V562.5C188.4 499.9 501.3 459 855.5 459 1231.2 459 1560.5 505 1744 574.1V826.9Z" fill="#55C57A"/><path d="M1746 662L2 830H1746V662Z" fill="#F7F7F7"/><g clip-path="url(#clip0)"><path d="M380.5 55.8C399.2 55.8 414.4 44.6 414.4 30.9 414.4 17.1 399.2 6 380.5 6 361.7 6 346.5 17.1 346.5 30.9 346.5 44.6 361.7 55.8 380.5 55.8Z" class="a"/><path d="M448.4 161.1C475.4 161.1 497.3 140.6 497.3 115.2 497.3 89.8 475.4 69.2 448.4 69.2 421.4 69.2 399.5 89.8 399.5 115.2 399.5 140.6 421.4 161.1 448.4 161.1Z" class="a"/><path d="M603.5 534.4C610.3 534.4 615.8 529.2 615.8 522.9 615.8 516.5 610.3 511.4 603.5 511.4 596.8 511.4 591.3 516.5 591.3 522.9 591.3 529.2 596.8 534.4 603.5 534.4Z" class="a"/><path d="M539.7 534.4C546.5 534.4 551.9 529.2 551.9 522.9 551.9 516.5 546.5 511.4 539.7 511.4 533 511.4 527.5 516.5 527.5 522.9 527.5 529.2 533 534.4 539.7 534.4Z" class="a"/><path d="M558.7 245.8H553.3V386.9H558.7V245.8Z" class="a"/><path d="M587.9 245.8H582.5V386.9H587.9V245.8Z" class="a"/><path d="M554.6 249.6L553.3 245.8C553.3 245.8 568.2 229.2 589.3 242.5L587.9 248.3H582.5C582.5 248.3 573.6 241.3 558.7 249.3L554.6 249.6Z" class="a"/><path d="M463.3 225.6H414.4V284.4H463.3V225.6Z" class="b"/><path d="M497.3 209H482.3V237.1H497.3V209Z" class="b"/><path d="M420.9 511.4L414.8 528.6C414.8 528.6 412 541.4 420.9 542 429.7 542.7 444 540.1 444 540.1 444 540.1 446 534.4 444 529.3 441.9 524.2 435.8 510.1 435.8 510.1L420.9 511.4Z" class="c"/><path d="M467 512C467 512 457.5 534.4 465 538.2 472.5 542 482.7 538.8 490.8 542 499 545.2 521.4 537.6 521.4 537.6 521.4 537.6 524.1 530.6 509.2 528.6 509.2 528.6 492.9 517.1 492.9 514.6 492.9 512 483.4 512 483.4 512H467Z" class="c"/><path d="M465 257.3C465 257.3 409.3 268.1 402.5 264.9 395.8 261.7 389 308.4 389 308.4 389 308.4 386.2 336.5 395.7 374.1 405.3 411.8 395.7 430.3 395.7 430.3 395.7 430.3 397.1 466.1 407.3 482.7 417.5 499.3 417.5 514.6 417.5 514.6 417.5 514.6 437.2 516.5 437.9 512.1 437.9 512.1 429.7 494.2 431.1 477.6 432.4 461 427 429 427 429 427 429 435.8 388.8 434.5 373.5 433.1 358.2 439.2 325.6 442.6 331.4 446 337.1 454.8 365.2 454.8 371 454.8 376.7 458.3 415 460.3 417.6 462.3 420.1 461.6 427.8 460.9 431.6 460.3 435.5 460.3 464.2 463.7 479.5 467 494.9 464.3 512.1 465 514.7 465.7 517.2 485.4 515.3 486.1 510.8 486.1 510.8 488.8 483.4 490.2 479.5 491.5 475.7 492.2 427.1 492.2 427.1 492.2 427.1 493.5 389.4 494.9 385.6 496.2 381.8 498.3 299.4 489.4 289.8 480.6 280.3 484 256 484 256L465 257.3Z" class="a"/><path d="M419.2 146C416.7 150.5 414.2 155 412.6 159.8 411 164.6 410.5 169.9 412 174.7 413 177.8 414.5 180.7 416.4 183.3 417.8 185.9 419.7 188.2 421.9 190.3 427 194.7 434.5 195.6 441.4 196.3 442.6 196.5 443.8 196.5 445 196.2 446 196 446.8 195.5 447.6 194.9 450.6 192.5 452 188.8 453.1 185.3 455.7 176.8 457.6 168.1 458.8 159.4 459 158 459 156.6 458.8 155.2 458.2 152.8 456.1 150.9 454.6 148.8 452.8 146.4 451.8 143.5 451.7 140.5 451.6 139 451.7 137.4 450.7 136.3 450.1 135.7 449.3 135.2 448.4 135 444.4 133.4 440.3 131.7 436.3 130.2 433.8 129.2 429.4 126.7 426.8 128.6 424.6 130.2 425.7 133.9 424.8 136.2 423.3 139.6 421.1 142.8 419.2 146Z" class="b"/><path d="M419.2 146C416.7 150.5 414.2 155 412.6 159.8 411 164.6 410.5 169.9 412 174.7 413 177.8 414.5 180.7 416.4 183.3 417.8 185.9 419.7 188.2 421.9 190.3 427 194.7 434.5 195.6 441.4 196.3 442.6 196.5 443.8 196.5 445 196.2 446 196 446.8 195.5 447.6 194.9 450.6 192.5 452 188.8 453.1 185.3 455.7 176.8 457.6 168.1 458.8 159.4 459 158 459 156.6 458.8 155.2 458.2 152.8 456.1 150.9 454.6 148.8 452.8 146.4 451.8 143.5 451.7 140.5 451.6 139 451.7 137.4 450.7 136.3 450.1 135.7 449.3 135.2 448.4 135 444.4 133.4 440.3 131.7 436.3 130.2 433.8 129.2 429.4 126.7 426.8 128.6 424.6 130.2 425.7 133.9 424.8 136.2 423.3 139.6 421.1 142.8 419.2 146Z" class="d"/><path d="M446 147.4C459.1 147.4 469.8 137.4 469.8 125.1 469.8 112.7 459.1 102.7 446 102.7 432.9 102.7 422.2 112.7 422.2 125.1 422.2 137.4 432.9 147.4 446 147.4Z" class="b"/><path d="M454.3 181.4C449.8 183 445.2 184.3 440.4 184.4 436.8 184.5 433.2 184.1 429.8 183.4 422.5 182 415.4 180.1 408.5 177.7 407.1 180.4 406.7 183.5 406.6 186.6 406.2 195.8 408.1 205 408.9 214.2 409.9 226 408.9 237.9 412.1 249.3 412.3 247.4 413.1 245.5 414.4 244 415.5 242.9 416.8 242 418.2 241.4 424.7 238.2 432.2 237.4 439.3 238.9 443.4 239.8 447.8 241.6 451.7 240 454 239.1 455.7 237.1 457 235.1 459.2 231.4 460.7 227.4 461.6 223.3 464.2 212.6 464.5 201.6 464.8 190.7 464.9 187.8 466.3 179.1 463.7 176.9 461.9 175.5 461.3 177.6 460 178.7 458.3 179.9 456.4 180.9 454.3 181.4V181.4Z" fill="#F2F2F2"/><path d="M420.9 143.1C419.3 141.9 417 142.3 415.2 143.2 413.5 144.2 412 145.6 410.3 146.5 405.4 149 398.8 147.2 394.1 150.1 389.7 152.8 389 158.5 388.6 163.4 387.8 176 387 188.6 383.8 200.8 383 204 381.9 207.3 382.3 210.7 382.5 212.6 383 214.4 383.7 216.2L387.9 228.6C389.9 234.3 391.8 240.2 392 246.2 392.2 252.2 390.7 257.9 389.2 263.7 386.3 275 384.3 286.6 383.5 298.2 383.2 302.1 383.1 306.1 384.8 309.6 386.5 313.3 389.9 316.1 393.6 318.2 397.3 320.2 401.2 321.8 404.8 324.1 412 328.5 417.8 335.5 426.2 337.3 430.1 338.1 434.1 337.8 438 337.1 438 337.1 435.8 243.2 429.7 229.8 423.6 216.4 418.2 158.3 418.2 156.4 418.2 154.4 420.9 143.1 420.9 143.1Z" class="e"/><path d="M453.9 146.1C453.9 146.1 486.1 146.1 490.8 162.1 495.6 178.1 477.2 204.2 477.2 204.2 477.2 204.2 484.7 256 488.1 261.1 491.5 266.2 490.1 276.4 490.1 276.4 492.6 283.4 493.1 290.9 491.5 298.1 488.8 309.6 478.6 330 478.6 330 478.6 330 465 330 461.6 337.7 458.2 345.3 457.5 304.5 457.5 304.5 457.5 304.5 445.3 229.8 446 225.3 446.7 220.8 450.1 183.8 451.4 173.6 452.8 163.3 455.8 150 453.9 146.1Z" class="e"/><path d="M478.6 156.4C478.6 156.4 494.2 160.8 494.2 165.9 494.2 171 499 198.5 499 207.4 499 216.4 497 217.7 499 220.8 501 224 477.3 222.8 477.3 222.8L473 186.4 478.6 156.4Z" class="e"/><path d="M386.2 202.3C386.2 202.3 416.8 204.2 422.2 200.4 427.7 196.6 450.8 205.5 452.8 210.6 454.8 215.7 420.2 216.4 414.8 216.4 409.3 216.4 383.5 224 383.5 224L386.2 202.3Z" class="f"/><path d="M323.3 499.8C323.3 499.8 309.1 533.6 316.5 537.6 323.9 541.6 401.9 538.8 401.9 538.8 401.9 538.8 414.9 531.2 400.1 526 400.1 526 387.7 525.4 379.6 520.7 371.6 516.1 362.3 507.3 362.3 507.3 362.3 507.3 361.7 494.5 356.7 497.4 355.2 498.3 354 499.5 353 500.9 352 502.4 351.4 503.9 351.1 505.6L323.3 499.8Z" class="a"/><path d="M323.3 499.8C323.3 499.8 309.1 533.6 316.5 537.6 323.9 541.6 401.9 538.8 401.9 538.8 401.9 538.8 414.9 531.2 400.1 526 400.1 526 387.7 525.4 379.6 520.7 371.6 516.1 362.3 507.3 362.3 507.3 362.3 507.3 361.7 494.5 356.7 497.4 355.2 498.3 354 499.5 353 500.9 352 502.4 351.4 503.9 351.1 505.6L323.3 499.8Z" class="d"/><path d="M301.3 510.1C301.3 510.1 285.7 547.1 293.9 551.6 302 556.1 387.6 552.9 387.6 552.9 387.6 552.9 401.8 544.6 385.5 538.8 385.5 538.8 372 538.2 363.1 533.1 354.3 528 344.1 518.4 344.1 518.4 344.1 518.4 343.4 504.3 338 507.5 336.4 508.5 335 509.9 333.9 511.4 332.9 512.9 332.2 514.7 331.9 516.5L301.3 510.1Z" class="a"/><path d="M381.5 275.1L372 355.6C372 355.6 368.6 393.9 358.4 402.2 358.4 402.2 358.4 414.3 355 418.2L350.2 468.6C350.2 468.6 357 487.1 356.3 490.3 355.7 493.6 359 503.8 358.4 505 357.7 506.3 325.8 505 325.8 505L332.6 402.2 353.6 259.2 381.5 275.1Z" class="c"/><path d="M381.5 275.1L372 355.6C372 355.6 368.6 393.9 358.4 402.2 358.4 402.2 358.4 414.3 355 418.2L350.2 468.6C350.2 468.6 357 487.1 356.3 490.3 355.7 493.6 359 503.8 358.4 505 357.7 506.3 325.8 505 325.8 505L332.6 402.2 353.6 259.2 381.5 275.1Z" class="d"/><path d="M364.5 272.6C364.5 272.6 357 338.3 353.6 352.4 351.5 361.6 350.1 371 349.6 380.5 349.6 380.5 348.9 400.9 342.8 406.7 341 408.3 339.6 410.3 338.6 412.5 337.7 414.7 337.3 417.1 337.3 419.4 337.3 419.4 331.2 483.9 334.6 491.6 338 499.3 341.4 505.6 338 510.7 334.7 515.8 297.3 515.8 297.3 512 297.3 508.2 297.3 505 295.3 503.1 293.2 501.2 295.3 489 295.3 489 295.3 489 287.1 432.2 294.6 415.6 302.1 399 305.5 353.6 305.5 353.6 305.5 353.6 300 301.9 293.2 293.6 286.4 285.3 294.6 255.9 294.6 255.9L364.5 272.6Z" class="c"/><path d="M345.4 68.3C346.2 70 348.1 71 349.8 71.8 359.8 77 368.1 84.5 376.3 91.9 374.3 85.4 374.7 78.4 377.6 72.1 378.5 70 379.8 67.7 379.1 65.4 378.6 63.8 377.1 62.6 375.7 61.5 372.3 59.1 368.8 56.9 365.2 54.8 362.6 53.4 357.4 49.6 354.5 50 354.4 53.7 354.3 57 352.5 60.4 352.1 61.3 345.7 69 345.4 68.3Z" class="f"/><path d="M380.1 76.5C395.5 76.5 408 64.8 408 50.3 408 35.9 395.5 24.2 380.1 24.2 364.7 24.2 352.3 35.9 352.3 50.3 352.3 64.8 364.7 76.5 380.1 76.5Z" class="f"/><path d="M381.5 112.3C381.5 112.3 386.2 89.9 372.7 82.3 359.1 74.6 343.5 65.7 343.5 65.7 343.5 65.7 338.7 65 336.7 74.6 336.7 74.6 298 81.6 293.9 116.1 289.8 150.6 296.6 201.1 296.6 201.1 296.6 201.1 290.5 245.1 283 268.7 283 268.7 276.9 273.9 304.1 266.2 331.2 258.5 378.8 287.9 378.8 287.9 378.8 287.9 383.5 283.4 383.5 280.2 383.5 277.1 389 258.5 389 258.5 389 258.5 393.7 180 395.7 171 397.8 162.1 387.6 113.6 381.5 112.3Z" class="a"/><path d="M339.4 156.4C339.4 156.4 376.7 135.9 369.3 109.7 361.8 83.6 345.5 75.3 345.5 75.3 345.5 75.3 319 67 296.6 93.8L298 105.9C298 105.9 322.4 59.3 348.9 88.7 375.4 118 339.4 156.4 339.4 156.4Z" class="e"/><path d="M299.3 95.1V199.8L292.4 235.5 289.1 252.1H265.4L232.1 240.6V163.4C232.1 163.4 260 111.7 268.8 102.1 277.6 92.5 299.3 95.1 299.3 95.1Z" class="e"/><path d="M292.4 235.5L289.1 252.1H265.4L232.1 240.6 292.4 235.5Z" class="d"/><path d="M291.2 213.2L349.6 146.1 297.9 215.7 292.5 217 291.2 213.2Z" class="e"/><path d="M373.6 53C375.1 52 377.1 51.9 379 51.7 380.9 51.5 382.9 51.3 384.4 50.2 387.1 48.3 387.3 44.6 389.2 42.1 392 38.4 397.5 37.9 402.3 38.1 405.2 38.2 408.4 38.4 410.9 36.9 413.3 35.4 414.5 32.5 415.4 29.8 416.4 26.6 417.1 22.6 414.5 20.3 412.8 18.6 410.1 18.3 408.1 16.8 406.2 15.4 405.3 12.9 404.2 10.7 403 8 401 5.7 398.5 4 394.9 1.6 390.2 1.1 385.8 1.1 381.3 1.1 376.9 1.7 372.5 1.2 368.9 0.8 365.3-0.4 361.7 0.1 357.1 0.8 353.3 4 351 7.8 348.8 11.6 347.8 16 346.9 20.2L344.3 31.9C343.5 35.5 342.7 39.2 343.3 42.8 344.6 50.3 351.7 56.3 352.1 63.9 352.6 61.8 353.6 59.8 355.1 58.2 356.6 56.6 358.4 55.3 360.6 54.5 361.1 54.3 361.7 54.2 362.3 54.3 363 54.5 363.4 55.2 363.8 55.7 365 57.2 368.7 59.4 370.7 58.4 372.6 57.4 371.2 54.5 373.6 53Z" class="a"/><path d="M551.3 377.9C551.3 377.9 532.9 378.6 530.2 398.4 527.5 418.2 530.2 510.1 530.2 510.1 530.2 510.1 551.3 524.8 577.1 522.9 602.9 521 644.3 513.9 644.3 513.9V406.1C644.3 390 630 376.9 612.9 377.8 612.5 377.8 612.1 377.9 611.7 377.9L551.3 377.9Z" class="c"/><path d="M577.7 537.6C584.5 537.6 590 532.4 590 526.1 590 519.7 584.5 514.6 577.7 514.6 571 514.6 565.5 519.7 565.5 526.1 565.5 532.4 571 537.6 577.7 537.6Z" class="a"/><path d="M644.3 532.5C651 532.5 656.5 527.3 656.5 521 656.5 514.6 651 509.5 644.3 509.5 637.5 509.5 632.1 514.6 632.1 521 632.1 527.3 637.5 532.5 644.3 532.5Z" class="a"/><path d="M303.4 172.3C303.4 172.3 298.6 200.4 318.3 197.9 318.3 197.9 328.5 196.6 329.9 197.9 331.2 199.1 381.5 190.8 388.3 183.8 388.3 183.8 396.4 181.3 400.5 185.1 404.6 188.9 445.3 192.8 433.1 181.3 420.9 169.8 401.9 167.2 401.9 167.2L376.1 168.5C376.1 168.5 362.5 172.3 354.3 168.5 346.2 164.6 323.1 166 323.1 166L303.4 172.3Z" class="f"/><path d="M331.2 83.6C331.2 83.6 300.7 86.8 300.7 128.3V181.3C300.7 181.3 317.6 174.2 321 174.9 324.4 175.5 338 166.6 338 166.6 338 166.6 353.6 132.1 352.3 122.5 350.9 112.9 351.6 84.8 331.2 83.6Z" class="a"/><path d="M471.1 186.4L440.6 206.8 459.6 208.7 486.1 187.6 471.1 186.4Z" class="a"/><path d="M494.9 217C494.9 217 502.4 238.7 492.2 245.1 482 251.5 465 222.8 465 222.8 465 222.8 446.7 202.3 458.9 197.9 471.1 193.4 476.1 212.9 476.1 212.9L492.2 226 494.9 217Z" class="b"/><path d="M448.4 124.7C463.4 124.7 475.5 117.5 475.5 108.5 475.5 99.5 463.4 92.2 448.4 92.2 433.4 92.2 421.2 99.5 421.2 108.5 421.2 117.5 433.4 124.7 448.4 124.7Z" class="a"/><path d="M453.1 87.7C464 87.7 472.8 79.4 472.8 69.2 472.8 59 464 50.7 453.1 50.7 442.3 50.7 433.4 59 433.4 69.2 433.4 79.4 442.3 87.7 453.1 87.7Z" class="a"/><path d="M380.1 46.8C394.6 46.8 406.3 41.1 406.3 34.1 406.3 27 394.6 21.3 380.1 21.3 365.7 21.3 354 27 354 34.1 354 41.1 365.7 46.8 380.1 46.8Z" class="a"/><path d="M355.7 57.7C360.7 57.7 364.8 48.1 364.8 36.3 364.8 24.5 360.7 14.9 355.7 14.9 350.6 14.9 346.5 24.5 346.5 36.3 346.5 48.1 350.6 57.7 355.7 57.7Z" class="a"/><path d="M219.3 541.4C221.8 536.9 218.9 531.5 215.6 527.5 212.3 523.6 208.2 519.5 208.3 514.4 208.4 507.2 216.6 502.9 223.1 499.1 228 496.2 232.4 492.8 236.4 489 238.1 487.5 239.5 485.8 240.5 483.9 241.9 481 241.9 477.8 241.8 474.7 241.5 464.4 240.9 454.1 240.1 443.7" style="stroke-width:4;stroke:#3F3D56"/><path d="M252.5 443.2C252.5 441.3 251.9 439.4 250.8 437.8 249.8 436.2 248.3 434.9 246.6 433.9L243.9 438.9 244 432.9C241.5 432.2 238.9 432.3 236.5 433.1 234.1 433.9 232.1 435.4 230.7 437.4 229.2 439.3 228.5 441.7 228.6 444.1 228.7 446.5 229.6 448.8 231.2 450.6 232.7 452.5 234.9 453.9 237.3 454.5 239.8 455.2 242.4 455.1 244.7 454.2 247.1 453.4 249.2 451.9 250.6 449.9 252 447.9 252.7 445.6 252.5 443.2V443.2Z" class="g"/><path d="M231.2 519.6C229.9 521.9 227.8 523.7 225.3 524.8 222.8 525.8 220 526 217.3 525.3 214.7 524.6 212.4 523.1 210.8 521 209.2 518.9 208.4 516.3 208.5 513.8 208.7 511.2 209.8 508.7 211.7 506.8 213.5 504.9 216 503.7 218.7 503.3 221.5 502.9 224.2 503.4 226.6 504.7 229 506.1 230.8 508.1 231.7 510.5L224.2 516.3 232.5 514.5C232.5 516.2 232 518 231.2 519.6V519.6Z" class="g"/><path d="M225.2 497.7C223.6 497.8 222 497.5 220.5 497 219 496.5 217.7 495.8 216.5 494.8 215.3 493.8 214.4 492.6 213.7 491.2 213.1 489.9 212.7 488.4 212.6 486.9 212.5 485.2 212.9 483.4 213.6 481.8 214.4 480.3 215.4 478.9 216.8 477.9 218.1 476.8 219.7 476 221.3 475.5L221.3 480.2 224 475.1C225.6 475 227.2 475.3 228.6 475.8 230.1 476.3 231.5 477 232.7 478 233.8 479 234.8 480.3 235.4 481.6 236.1 482.9 236.5 484.4 236.6 485.9 236.6 487.2 236.5 488.5 236 489.7 235.3 492 233.9 493.9 231.9 495.3 230 496.7 227.6 497.6 225.2 497.7V497.7Z" class="g"/><path d="M254.4 479.4C252.5 479.5 250.7 479.2 249 478.5 247.3 477.7 245.8 476.7 244.7 475.3 243.5 474 242.7 472.4 242.2 470.7 241.8 469 241.8 467.3 242.3 465.6 242.7 463.9 243.5 462.3 244.7 461 245.9 459.7 247.4 458.6 249 457.9 250.7 457.2 252.6 456.9 254.4 456.9 256.2 457 258.1 457.5 259.7 458.3L257.5 463.8 261.9 459.8C263.7 461.3 264.9 463.3 265.5 465.5 266.1 467.6 265.9 469.9 265.1 472 264.3 474.1 262.9 476 260.9 477.3 259 478.6 256.7 479.4 254.4 479.4V479.4Z" class="g"/><path d="M250.9 446.2C248.2 446.5 245.5 447.3 242.7 447.4 239.9 447.6 236.8 447 235.1 444.9 234.1 443.8 233.7 442.5 232.9 441.3 232.1 440.2 231.1 439.2 229.8 438.6 229.1 440 228.7 441.6 228.7 443.2 228.6 444.7 228.9 446.3 229.6 447.8 230.2 449.2 231.2 450.6 232.4 451.6 233.6 452.7 235 453.6 236.6 454.1 238.2 454.6 239.9 454.8 241.6 454.7 243.3 454.6 244.9 454.1 246.4 453.4 247.8 452.6 249.1 451.6 250.2 450.3 251.2 449.1 251.9 447.6 252.3 446.1 251.8 446.1 251.4 446.1 250.9 446.2Z" class="d"/><path d="M254.4 479.4C252.3 479.5 250.2 479.1 248.4 478.2 246.5 477.4 245 476 243.8 474.4 242.7 472.8 242 470.9 241.8 469 241.7 467.1 242.1 465.1 242.9 463.4 243.9 464 244.7 464.7 245.4 465.6 246.2 466.8 246.7 468.2 247.7 469.4 249.6 471.4 252.8 472.1 255.7 472 258.6 471.8 261.4 471.1 264.2 470.8 264.6 470.8 265.1 470.8 265.5 470.8 264.9 473.1 263.5 475.3 261.5 476.9 259.5 478.4 257 479.3 254.4 479.4V479.4Z" class="d"/><path d="M225.2 497.7C223.6 497.8 222 497.5 220.5 497 219 496.5 217.7 495.8 216.5 494.8 215.3 493.8 214.4 492.6 213.7 491.2 213.1 489.9 212.7 488.4 212.6 486.9 212.5 485.2 212.9 483.4 213.6 481.8 214.6 482.4 215.5 483.2 216.2 484.1 217.1 485.3 217.7 486.7 218.8 487.9 220.8 490 224.2 490.8 227.3 490.7 230.4 490.6 233.1 489.9 236.1 489.7 235.4 491.9 233.9 493.9 232 495.3 230 496.8 227.6 497.6 225.2 497.7V497.7Z" class="d"/><path d="M231.2 519.6C230.5 521 229.6 522.2 228.4 523.2 227.3 524.2 226 525 224.5 525.5 223 526.1 221.4 526.3 219.9 526.3 218.3 526.2 216.7 525.9 215.3 525.3 213.9 524.7 212.6 523.8 211.5 522.7 210.4 521.7 209.6 520.4 209 519 208.4 517.6 208.2 516.2 208.2 514.7 208.3 513.2 208.6 511.7 209.3 510.4 210.3 511 211.1 511.8 211.9 512.6 213 513.9 213.8 515.4 215.1 516.6 217.6 518.9 221.5 519.8 225.1 519.9 227.1 519.9 229.1 519.8 231.2 519.6V519.6Z" class="d"/><path d="M201.1 536.3C201.1 536.3 210.6 536 213.5 534.1 216.3 532.2 228 529.9 228.8 532.9 229.5 536 243 548.2 232.3 548.3 221.6 548.3 207.4 546.7 204.6 545.1 201.7 543.4 201.1 536.3 201.1 536.3Z" fill="#656380"/><path d="M232.5 547.2C221.8 547.3 207.6 545.6 204.8 544 202.6 542.8 201.7 538.3 201.5 536.2H201.1C201.1 536.2 201.7 543.4 204.6 545.1 207.4 546.7 221.6 548.4 232.3 548.3 235.4 548.3 236.4 547.2 236.4 545.7 236 546.6 234.8 547.2 232.5 547.2Z" style="fill:black;opacity:0.2"/></g><defs><clipPath><rect  fill="white"/></clipPath></defs></svg>
