<?xml version="1.0" standalone="no"?>
<svg
  width="600"
  height="600"
  viewBox="0 0 600 600"
  xmlns="http://www.w3.org/2000/svg"
>
  <g transform="translate(300,300)">
    <path d="M98.7,-117.5C143.7,-103.1,206.9,-95.5,236,-63.2C265,-30.9,260,26,239.4,74.3C218.9,122.6,182.9,162.4,140.4,192.8C98,223.2,49,244.1,4.5,237.9C-40,231.7,-79.9,198.4,-113.7,165.2C-147.5,132,-175,98.9,-199.7,56.9C-224.4,14.8,-246.3,-36.2,-233.4,-75.8C-220.5,-115.5,-172.9,-143.9,-128.2,-158.4C-83.5,-172.9,-41.7,-173.4,-7.4,-163.2C26.8,-152.9,53.7,-131.9,98.7,-117.5Z" fill="#7bdcb5" />
  </g>
</svg>
    